# xmcd CD database file
#
# Track frame offsets:
#	150
#	15028
#	31701
#	45264
#	63242
#	78258
#	93274
#	104738
#	119011
#	135985
#	152895
#	166823
#	181478
#	197177
#	208549
#
# Disc length: 2978 seconds
#
# Revision: 0
# Processed by: cddbd v1.5.2PL0 Copyright (c) Steve Scherf et al.
# Submitted via: CDex 1.51
#
DISCID=b50ba00f
DTITLE=Zé Henrique and Gabriel - Ao Vivo
DYEAR=2009
DGENRE=Country
TTITLE0=Acelerou
TTITLE1=Eu Amo Te Amar
TTITLE2=O Amor Deixa Agente Idiota
TTITLE3=Não Me Dou Por Vencido
TTITLE4=Meu Sol
TTITLE5=Muito Prazer
TTITLE6=Histórias Do Coração
TTITLE7=Minha Outra Metade
TTITLE8=Oba, Oba
TTITLE9=Cartas De Amor
TTITLE10=O Que Combina Comigo É Você
TTITLE11=Ah, Que Deus É Esse
TTITLE12=Peito De Aço
TTITLE13=Nas Asas Do Seu Coração
TTITLE14=Solidão Dando Risada
EXTD=YEAR: 2009
EXTT0=
EXTT1=
EXTT2=
EXTT3=
EXTT4=
EXTT5=
EXTT6=
EXTT7=
EXTT8=
EXTT9=
EXTT10=
EXTT11=
EXTT12=
EXTT13=
EXTT14=
PLAYORDER=
